<svg width="131" height="41" viewBox="0 0 131 41" fill="none" xmlns="http://www.w3.org/2000/svg">
<rect x="0.953125" y="0.267578" width="130" height="40" rx="4" fill="#515051"/>
<path d="M25.9611 25.2676V15.4256H27.8651V25.2676H25.9611ZM34.239 25.2676V21.3896C34.239 20.9882 34.113 20.6616 33.861 20.4096C33.609 20.1576 33.2823 20.0316 32.881 20.0316C32.6196 20.0316 32.3863 20.0876 32.181 20.1996C31.9756 20.3116 31.8123 20.4702 31.691 20.6756C31.579 20.8809 31.523 21.1189 31.523 21.3896L30.809 21.0256C30.809 20.4936 30.921 20.0316 31.145 19.6396C31.3783 19.2382 31.6956 18.9256 32.097 18.7016C32.5076 18.4776 32.9696 18.3656 33.483 18.3656C33.9776 18.3656 34.421 18.4916 34.813 18.7436C35.205 18.9862 35.513 19.3082 35.737 19.7096C35.961 20.1016 36.073 20.5262 36.073 20.9836V25.2676H34.239ZM29.689 25.2676V18.5056H31.523V25.2676H29.689ZM37.5503 25.2676V18.5056H39.3983V25.2676H37.5503ZM38.4743 17.4136C38.1756 17.4136 37.9283 17.3156 37.7323 17.1196C37.5363 16.9142 37.4383 16.6622 37.4383 16.3636C37.4383 16.0742 37.5363 15.8269 37.7323 15.6216C37.9283 15.4162 38.1756 15.3136 38.4743 15.3136C38.7823 15.3136 39.0296 15.4162 39.2163 15.6216C39.4123 15.8269 39.5103 16.0742 39.5103 16.3636C39.5103 16.6622 39.4123 16.9142 39.2163 17.1196C39.0296 17.3156 38.7823 17.4136 38.4743 17.4136ZM44.2149 25.4076C43.5243 25.4076 42.9036 25.2536 42.3529 24.9456C41.8023 24.6376 41.3683 24.2176 41.0509 23.6856C40.7336 23.1536 40.5749 22.5562 40.5749 21.8936C40.5749 21.2216 40.7336 20.6196 41.0509 20.0876C41.3683 19.5556 41.8023 19.1356 42.3529 18.8276C42.9129 18.5102 43.5336 18.3516 44.2149 18.3516C44.7469 18.3516 45.2369 18.4496 45.6849 18.6456C46.1329 18.8416 46.5203 19.1216 46.8469 19.4856L45.6709 20.6756C45.4936 20.4796 45.2789 20.3302 45.0269 20.2276C44.7843 20.1249 44.5136 20.0736 44.2149 20.0736C43.8789 20.0736 43.5756 20.1529 43.3049 20.3116C43.0436 20.4609 42.8336 20.6709 42.6749 20.9416C42.5256 21.2029 42.4509 21.5156 42.4509 21.8796C42.4509 22.2342 42.5256 22.5516 42.6749 22.8316C42.8336 23.1022 43.0436 23.3169 43.3049 23.4756C43.5756 23.6249 43.8789 23.6996 44.2149 23.6996C44.5229 23.6996 44.7983 23.6482 45.0409 23.5456C45.2929 23.4336 45.5076 23.2749 45.6849 23.0696L46.8749 24.2596C46.5296 24.6329 46.1329 24.9176 45.6849 25.1136C45.2369 25.3096 44.7469 25.4076 44.2149 25.4076ZM47.9136 25.2676V18.5056H49.7616V25.2676H47.9136ZM48.8376 17.4136C48.5389 17.4136 48.2916 17.3156 48.0956 17.1196C47.8996 16.9142 47.8016 16.6622 47.8016 16.3636C47.8016 16.0742 47.8996 15.8269 48.0956 15.6216C48.2916 15.4162 48.5389 15.3136 48.8376 15.3136C49.1456 15.3136 49.3929 15.4162 49.5796 15.6216C49.7756 15.8269 49.8736 16.0742 49.8736 16.3636C49.8736 16.6622 49.7756 16.9142 49.5796 17.1196C49.3929 17.3156 49.1456 17.4136 48.8376 17.4136ZM54.2142 25.4076C53.5982 25.4076 53.0429 25.2536 52.5482 24.9456C52.0536 24.6376 51.6662 24.2176 51.3862 23.6856C51.1062 23.1536 50.9662 22.5562 50.9662 21.8936C50.9662 21.2216 51.1062 20.6196 51.3862 20.0876C51.6662 19.5556 52.0536 19.1356 52.5482 18.8276C53.0429 18.5196 53.5982 18.3656 54.2142 18.3656C54.6996 18.3656 55.1336 18.4636 55.5162 18.6596C55.8989 18.8556 56.2022 19.1309 56.4262 19.4856C56.6596 19.8309 56.7856 20.2229 56.8042 20.6616V23.0976C56.7856 23.5456 56.6596 23.9422 56.4262 24.2876C56.2022 24.6329 55.8989 24.9082 55.5162 25.1136C55.1336 25.3096 54.6996 25.4076 54.2142 25.4076ZM54.5502 23.7136C55.0636 23.7136 55.4789 23.5456 55.7962 23.2096C56.1136 22.8642 56.2722 22.4209 56.2722 21.8796C56.2722 21.5249 56.1976 21.2122 56.0482 20.9416C55.9082 20.6616 55.7076 20.4469 55.4462 20.2976C55.1942 20.1389 54.8956 20.0596 54.5502 20.0596C54.2142 20.0596 53.9156 20.1389 53.6542 20.2976C53.4022 20.4469 53.2016 20.6616 53.0522 20.9416C52.9122 21.2122 52.8422 21.5249 52.8422 21.8796C52.8422 22.2436 52.9122 22.5656 53.0522 22.8456C53.2016 23.1162 53.4022 23.3309 53.6542 23.4896C53.9156 23.6389 54.2142 23.7136 54.5502 23.7136ZM56.1742 25.2676V23.4476L56.4682 21.7956L56.1742 20.1716V18.5056H57.9942V25.2676H56.1742ZM59.6167 25.2676V18.5056H61.4507V25.2676H59.6167ZM61.4507 21.5296L60.7367 21.0536C60.8207 20.2229 61.0634 19.5696 61.4647 19.0936C61.866 18.6082 62.4447 18.3656 63.2007 18.3656C63.5274 18.3656 63.8214 18.4216 64.0827 18.5336C64.344 18.6362 64.582 18.8089 64.7967 19.0516L63.6487 20.3676C63.546 20.2556 63.42 20.1716 63.2707 20.1156C63.1307 20.0596 62.9674 20.0316 62.7807 20.0316C62.3887 20.0316 62.0667 20.1576 61.8147 20.4096C61.572 20.6522 61.4507 21.0256 61.4507 21.5296ZM70.7454 25.4216C70.3627 25.4216 69.9847 25.3702 69.6114 25.2676C69.2474 25.1649 68.9114 25.0249 68.6034 24.8476C68.2954 24.6609 68.0294 24.4369 67.8054 24.1756L68.8974 23.0696C69.1307 23.3309 69.4014 23.5269 69.7094 23.6576C70.0174 23.7882 70.358 23.8536 70.7314 23.8536C71.03 23.8536 71.254 23.8116 71.4034 23.7276C71.562 23.6436 71.6414 23.5176 71.6414 23.3496C71.6414 23.1629 71.5574 23.0182 71.3894 22.9156C71.2307 22.8129 71.0207 22.7289 70.7594 22.6636C70.498 22.5889 70.2227 22.5096 69.9334 22.4256C69.6534 22.3322 69.3827 22.2156 69.1214 22.0756C68.86 21.9262 68.6454 21.7256 68.4774 21.4736C68.3187 21.2122 68.2394 20.8762 68.2394 20.4656C68.2394 20.0362 68.342 19.6629 68.5474 19.3456C68.762 19.0282 69.0654 18.7809 69.4574 18.6036C69.8494 18.4262 70.3114 18.3376 70.8434 18.3376C71.4034 18.3376 71.9074 18.4356 72.3554 18.6316C72.8127 18.8276 73.1907 19.1216 73.4894 19.5136L72.3834 20.6196C72.178 20.3676 71.9447 20.1856 71.6834 20.0736C71.4314 19.9616 71.156 19.9056 70.8574 19.9056C70.5867 19.9056 70.3767 19.9476 70.2274 20.0316C70.0874 20.1156 70.0174 20.2322 70.0174 20.3816C70.0174 20.5496 70.0967 20.6802 70.2554 20.7736C70.4234 20.8669 70.638 20.9509 70.8994 21.0256C71.1607 21.0909 71.4314 21.1702 71.7114 21.2636C72.0007 21.3476 72.2714 21.4689 72.5234 21.6276C72.7847 21.7862 72.9947 21.9962 73.1534 22.2576C73.3214 22.5189 73.4054 22.8549 73.4054 23.2656C73.4054 23.9282 73.1674 24.4556 72.6914 24.8476C72.2154 25.2302 71.5667 25.4216 70.7454 25.4216ZM77.8761 25.4076C77.1667 25.4076 76.5367 25.2582 75.9861 24.9596C75.4354 24.6516 74.9967 24.2316 74.6701 23.6996C74.3527 23.1676 74.1941 22.5609 74.1941 21.8796C74.1941 21.2076 74.3481 20.6102 74.6561 20.0876C74.9734 19.5556 75.4027 19.1356 75.9441 18.8276C76.4854 18.5102 77.0874 18.3516 77.7501 18.3516C78.4034 18.3516 78.9774 18.5009 79.4721 18.7996C79.9761 19.0889 80.3681 19.4902 80.6481 20.0036C80.9374 20.5076 81.0821 21.0816 81.0821 21.7256C81.0821 21.8469 81.0727 21.9729 81.0541 22.1036C81.0447 22.2249 81.0214 22.3649 80.9841 22.5236L75.3001 22.5376V21.1656L80.1301 21.1516L79.3881 21.7256C79.3694 21.3242 79.2947 20.9882 79.1641 20.7176C79.0427 20.4469 78.8607 20.2416 78.6181 20.1016C78.3847 19.9522 78.0954 19.8776 77.7501 19.8776C77.3861 19.8776 77.0687 19.9616 76.7981 20.1296C76.5274 20.2882 76.3174 20.5169 76.1681 20.8156C76.0281 21.1049 75.9581 21.4502 75.9581 21.8516C75.9581 22.2622 76.0327 22.6216 76.1821 22.9296C76.3407 23.2282 76.5647 23.4616 76.8541 23.6296C77.1434 23.7882 77.4794 23.8676 77.8621 23.8676C78.2074 23.8676 78.5201 23.8116 78.8001 23.6996C79.0801 23.5782 79.3227 23.4009 79.5281 23.1676L80.6061 24.2456C80.2794 24.6282 79.8781 24.9176 79.4021 25.1136C78.9354 25.3096 78.4267 25.4076 77.8761 25.4076ZM84.5403 25.4216C84.1576 25.4216 83.7796 25.3702 83.4063 25.2676C83.0423 25.1649 82.7063 25.0249 82.3983 24.8476C82.0903 24.6609 81.8243 24.4369 81.6003 24.1756L82.6923 23.0696C82.9256 23.3309 83.1963 23.5269 83.5043 23.6576C83.8123 23.7882 84.153 23.8536 84.5263 23.8536C84.825 23.8536 85.049 23.8116 85.1983 23.7276C85.357 23.6436 85.4363 23.5176 85.4363 23.3496C85.4363 23.1629 85.3523 23.0182 85.1843 22.9156C85.0256 22.8129 84.8156 22.7289 84.5543 22.6636C84.293 22.5889 84.0176 22.5096 83.7283 22.4256C83.4483 22.3322 83.1776 22.2156 82.9163 22.0756C82.655 21.9262 82.4403 21.7256 82.2723 21.4736C82.1136 21.2122 82.0343 20.8762 82.0343 20.4656C82.0343 20.0362 82.137 19.6629 82.3423 19.3456C82.557 19.0282 82.8603 18.7809 83.2523 18.6036C83.6443 18.4262 84.1063 18.3376 84.6383 18.3376C85.1983 18.3376 85.7023 18.4356 86.1503 18.6316C86.6076 18.8276 86.9856 19.1216 87.2843 19.5136L86.1783 20.6196C85.973 20.3676 85.7396 20.1856 85.4783 20.0736C85.2263 19.9616 84.951 19.9056 84.6523 19.9056C84.3816 19.9056 84.1716 19.9476 84.0223 20.0316C83.8823 20.1156 83.8123 20.2322 83.8123 20.3816C83.8123 20.5496 83.8916 20.6802 84.0503 20.7736C84.2183 20.8669 84.433 20.9509 84.6943 21.0256C84.9556 21.0909 85.2263 21.1702 85.5063 21.2636C85.7956 21.3476 86.0663 21.4689 86.3183 21.6276C86.5796 21.7862 86.7896 21.9962 86.9483 22.2576C87.1163 22.5189 87.2003 22.8549 87.2003 23.2656C87.2003 23.9282 86.9623 24.4556 86.4863 24.8476C86.0103 25.2302 85.3616 25.4216 84.5403 25.4216ZM88.437 25.2676V18.5056H90.285V25.2676H88.437ZM89.361 17.4136C89.0623 17.4136 88.815 17.3156 88.619 17.1196C88.423 16.9142 88.325 16.6622 88.325 16.3636C88.325 16.0742 88.423 15.8269 88.619 15.6216C88.815 15.4162 89.0623 15.3136 89.361 15.3136C89.669 15.3136 89.9163 15.4162 90.103 15.6216C90.299 15.8269 90.397 16.0742 90.397 16.3636C90.397 16.6622 90.299 16.9142 90.103 17.1196C89.9163 17.3156 89.669 17.4136 89.361 17.4136ZM95.0877 25.4076C94.4063 25.4076 93.7903 25.2536 93.2397 24.9456C92.6983 24.6282 92.2643 24.2036 91.9377 23.6716C91.6203 23.1302 91.4617 22.5282 91.4617 21.8656C91.4617 21.2029 91.6203 20.6102 91.9377 20.0876C92.255 19.5556 92.689 19.1356 93.2397 18.8276C93.7903 18.5102 94.4017 18.3516 95.0737 18.3516C95.7643 18.3516 96.3803 18.5102 96.9217 18.8276C97.4723 19.1356 97.9063 19.5556 98.2237 20.0876C98.541 20.6102 98.6997 21.2029 98.6997 21.8656C98.6997 22.5282 98.541 23.1302 98.2237 23.6716C97.9063 24.2036 97.4723 24.6282 96.9217 24.9456C96.3803 25.2536 95.769 25.4076 95.0877 25.4076ZM95.0737 23.6996C95.419 23.6996 95.7223 23.6249 95.9837 23.4756C96.2543 23.3169 96.4597 23.1022 96.5997 22.8316C96.749 22.5516 96.8237 22.2342 96.8237 21.8796C96.8237 21.5249 96.749 21.2122 96.5997 20.9416C96.4503 20.6709 96.245 20.4609 95.9837 20.3116C95.7223 20.1529 95.419 20.0736 95.0737 20.0736C94.7377 20.0736 94.439 20.1529 94.1777 20.3116C93.9163 20.4609 93.711 20.6709 93.5617 20.9416C93.4123 21.2122 93.3377 21.5249 93.3377 21.8796C93.3377 22.2342 93.4123 22.5516 93.5617 22.8316C93.711 23.1022 93.9163 23.3169 94.1777 23.4756C94.439 23.6249 94.7377 23.6996 95.0737 23.6996ZM94.1917 17.6376L93.4917 16.7696L95.5077 14.5856L96.6837 16.0136L94.1917 17.6376ZM104.43 25.2676V21.3896C104.43 20.9882 104.304 20.6616 104.052 20.4096C103.8 20.1576 103.474 20.0316 103.072 20.0316C102.811 20.0316 102.578 20.0876 102.372 20.1996C102.167 20.3116 102.004 20.4702 101.882 20.6756C101.77 20.8809 101.714 21.1189 101.714 21.3896L101 21.0256C101 20.4936 101.112 20.0316 101.336 19.6396C101.57 19.2382 101.887 18.9256 102.288 18.7016C102.699 18.4776 103.161 18.3656 103.674 18.3656C104.169 18.3656 104.612 18.4916 105.004 18.7436C105.396 18.9862 105.704 19.3082 105.928 19.7096C106.152 20.1016 106.264 20.5262 106.264 20.9836V25.2676H104.43ZM99.8804 25.2676V18.5056H101.714V25.2676H99.8804Z" fill="white"/>
</svg>
